<svg xmlns="http://www.w3.org/2000/svg" viewBox="0 0 720 1020" role="img" aria-labelledby="title desc">
  <title id="title">10 Sucos Detox Exterminadores de Gordura</title>
  <desc id="desc">Capa verde e creme do guia 10 Sucos Detox.</desc>
  <defs><linearGradient id="bg" x1="0" y1="0" x2="1" y2="1"><stop stop-color="#173b2d"/><stop offset="1" stop-color="#6a9a5c"/></linearGradient><radialGradient id="sun"><stop stop-color="#f4dc8b" stop-opacity=".9"/><stop offset="1" stop-color="#f4dc8b" stop-opacity="0"/></radialGradient></defs>
  <rect width="720" height="1020" fill="url(#bg)"/><circle cx="470" cy="330" r="280" fill="url(#sun)"/>
  <g fill="none" stroke="#d8edb1" stroke-opacity=".42"><circle cx="470" cy="330" r="220"/><circle cx="470" cy="330" r="175"/><path d="M470 70v120M470 470v120M210 330h120M610 330h70"/></g>
  <g fill="#fff6dd" font-family="Arial, Helvetica, sans-serif"><text x="58" y="78" font-size="19" letter-spacing="6">ROSI FELICIANO</text><text x="58" y="720" font-size="53" font-weight="700">10 SUCOS</text><text x="58" y="790" font-size="53" font-weight="700" fill="#f4dc8b">DETOX</text><text x="60" y="850" font-size="24" letter-spacing="2">EXTERMINADORES DE GORDURA</text><text x="60" y="930" font-size="17" letter-spacing="4" fill="#e6efc9">MAIS SABOR · MAIS LEVEZA · MAIS VOCÊ</text></g>
  <g transform="translate(350 185)"><path d="M0 42h110l-12 260c-2 38-84 38-86 0z" fill="#b6df8e" fill-opacity=".78" stroke="#fff6dd" stroke-width="5"/><path d="M22 75h68M26 120h63M31 165h55" stroke="#fff6dd" stroke-width="5" stroke-linecap="round" opacity=".8"/><path d="M50 42c-12-54 18-72 39-91" fill="none" stroke="#fff6dd" stroke-width="8" stroke-linecap="round"/><path d="M86-44c31-9 51 8 51 33-31 11-49 0-51-33z" fill="#d8edb1"/></g>
</svg>
